<mxfile host="app.diagrams.net" agent="Mozilla/5.0 (Windows NT 10.0; Win64; x64) AppleWebKit/537.36 (KHTML, like Gecko) Chrome/133.0.0.0 Safari/537.36" version="26.0.16">
  <diagram name="PÃ¡gina-1" id="SbhEGF_8QXAxmofHZ5TO">
    <mxGraphModel dx="977" dy="580" grid="1" gridSize="10" guides="1" tooltips="1" connect="1" arrows="1" fold="1" page="1" pageScale="1" pageWidth="827" pageHeight="1169" math="0" shadow="0">
      <root>
        <mxCell id="0" />
        <mxCell id="1" parent="0" />
        <mxCell id="i2pNjT0lnwEaQv07GCV7-8" value="transportista" style="rounded=1;arcSize=10;whiteSpace=wrap;html=1;align=center;" vertex="1" parent="1">
          <mxGeometry x="220" y="320" width="100" height="40" as="geometry" />
        </mxCell>
        <mxCell id="i2pNjT0lnwEaQv07GCV7-11" value="paquete" style="rounded=1;arcSize=10;whiteSpace=wrap;html=1;align=center;" vertex="1" parent="1">
          <mxGeometry x="220" y="440" width="100" height="40" as="geometry" />
        </mxCell>
        <mxCell id="i2pNjT0lnwEaQv07GCV7-12" value="viaje" style="rounded=1;arcSize=10;whiteSpace=wrap;html=1;align=center;" vertex="1" parent="1">
          <mxGeometry x="580" y="490" width="100" height="40" as="geometry" />
        </mxCell>
        <mxCell id="i2pNjT0lnwEaQv07GCV7-13" value="vehiculo" style="rounded=1;arcSize=10;whiteSpace=wrap;html=1;align=center;" vertex="1" parent="1">
          <mxGeometry x="560" y="320" width="100" height="40" as="geometry" />
        </mxCell>
        <mxCell id="i2pNjT0lnwEaQv07GCV7-16" value="num identificacion" style="ellipse;whiteSpace=wrap;html=1;align=center;" vertex="1" parent="1">
          <mxGeometry x="20" y="320" width="100" height="40" as="geometry" />
        </mxCell>
        <mxCell id="i2pNjT0lnwEaQv07GCV7-17" value="direccion" style="ellipse;whiteSpace=wrap;html=1;align=center;" vertex="1" parent="1">
          <mxGeometry x="30" y="230" width="100" height="40" as="geometry" />
        </mxCell>
        <mxCell id="i2pNjT0lnwEaQv07GCV7-18" value="tel_movol" style="ellipse;whiteSpace=wrap;html=1;align=center;" vertex="1" parent="1">
          <mxGeometry x="110" y="170" width="100" height="40" as="geometry" />
        </mxCell>
        <mxCell id="i2pNjT0lnwEaQv07GCV7-19" value="salario" style="ellipse;whiteSpace=wrap;html=1;align=center;" vertex="1" parent="1">
          <mxGeometry x="240" y="170" width="100" height="40" as="geometry" />
        </mxCell>
        <mxCell id="i2pNjT0lnwEaQv07GCV7-20" value="id_empleo" style="ellipse;whiteSpace=wrap;html=1;align=center;" vertex="1" parent="1">
          <mxGeometry x="340" y="190" width="100" height="40" as="geometry" />
        </mxCell>
        <mxCell id="i2pNjT0lnwEaQv07GCV7-21" value="nombre" style="ellipse;whiteSpace=wrap;html=1;align=center;" vertex="1" parent="1">
          <mxGeometry x="364" y="260" width="100" height="40" as="geometry" />
        </mxCell>
        <mxCell id="i2pNjT0lnwEaQv07GCV7-22" value="" style="endArrow=none;html=1;rounded=0;" edge="1" parent="1" source="i2pNjT0lnwEaQv07GCV7-16">
          <mxGeometry relative="1" as="geometry">
            <mxPoint x="250" y="360" as="sourcePoint" />
            <mxPoint x="220" y="350" as="targetPoint" />
          </mxGeometry>
        </mxCell>
        <mxCell id="i2pNjT0lnwEaQv07GCV7-23" value="1" style="resizable=0;html=1;whiteSpace=wrap;align=right;verticalAlign=bottom;" connectable="0" vertex="1" parent="i2pNjT0lnwEaQv07GCV7-22">
          <mxGeometry x="1" relative="1" as="geometry" />
        </mxCell>
        <mxCell id="i2pNjT0lnwEaQv07GCV7-24" value="" style="endArrow=none;html=1;rounded=0;entryX=0;entryY=0.25;entryDx=0;entryDy=0;exitX=0.776;exitY=1.029;exitDx=0;exitDy=0;exitPerimeter=0;" edge="1" parent="1" source="i2pNjT0lnwEaQv07GCV7-17" target="i2pNjT0lnwEaQv07GCV7-8">
          <mxGeometry relative="1" as="geometry">
            <mxPoint x="129" y="353" as="sourcePoint" />
            <mxPoint x="230" y="360" as="targetPoint" />
          </mxGeometry>
        </mxCell>
        <mxCell id="i2pNjT0lnwEaQv07GCV7-25" value="1" style="resizable=0;html=1;whiteSpace=wrap;align=right;verticalAlign=bottom;" connectable="0" vertex="1" parent="i2pNjT0lnwEaQv07GCV7-24">
          <mxGeometry x="1" relative="1" as="geometry" />
        </mxCell>
        <mxCell id="i2pNjT0lnwEaQv07GCV7-26" value="" style="endArrow=none;html=1;rounded=0;entryX=0.25;entryY=0;entryDx=0;entryDy=0;exitX=0.5;exitY=1;exitDx=0;exitDy=0;" edge="1" parent="1" source="i2pNjT0lnwEaQv07GCV7-18" target="i2pNjT0lnwEaQv07GCV7-8">
          <mxGeometry relative="1" as="geometry">
            <mxPoint x="139" y="363" as="sourcePoint" />
            <mxPoint x="240" y="370" as="targetPoint" />
          </mxGeometry>
        </mxCell>
        <mxCell id="i2pNjT0lnwEaQv07GCV7-27" value="1" style="resizable=0;html=1;whiteSpace=wrap;align=right;verticalAlign=bottom;" connectable="0" vertex="1" parent="i2pNjT0lnwEaQv07GCV7-26">
          <mxGeometry x="1" relative="1" as="geometry" />
        </mxCell>
        <mxCell id="i2pNjT0lnwEaQv07GCV7-28" value="" style="endArrow=none;html=1;rounded=0;entryX=0.579;entryY=-0.05;entryDx=0;entryDy=0;entryPerimeter=0;exitX=0.339;exitY=0.943;exitDx=0;exitDy=0;exitPerimeter=0;" edge="1" parent="1" source="i2pNjT0lnwEaQv07GCV7-19" target="i2pNjT0lnwEaQv07GCV7-8">
          <mxGeometry relative="1" as="geometry">
            <mxPoint x="149" y="373" as="sourcePoint" />
            <mxPoint x="250" y="380" as="targetPoint" />
          </mxGeometry>
        </mxCell>
        <mxCell id="i2pNjT0lnwEaQv07GCV7-29" value="1" style="resizable=0;html=1;whiteSpace=wrap;align=right;verticalAlign=bottom;" connectable="0" vertex="1" parent="i2pNjT0lnwEaQv07GCV7-28">
          <mxGeometry x="1" relative="1" as="geometry" />
        </mxCell>
        <mxCell id="i2pNjT0lnwEaQv07GCV7-30" value="" style="endArrow=none;html=1;rounded=0;exitX=0;exitY=1;exitDx=0;exitDy=0;" edge="1" parent="1" source="i2pNjT0lnwEaQv07GCV7-20" target="i2pNjT0lnwEaQv07GCV7-8">
          <mxGeometry relative="1" as="geometry">
            <mxPoint x="159" y="383" as="sourcePoint" />
            <mxPoint x="260" y="390" as="targetPoint" />
          </mxGeometry>
        </mxCell>
        <mxCell id="i2pNjT0lnwEaQv07GCV7-31" value="1" style="resizable=0;html=1;whiteSpace=wrap;align=right;verticalAlign=bottom;" connectable="0" vertex="1" parent="i2pNjT0lnwEaQv07GCV7-30">
          <mxGeometry x="1" relative="1" as="geometry" />
        </mxCell>
        <mxCell id="i2pNjT0lnwEaQv07GCV7-32" value="" style="endArrow=none;html=1;rounded=0;exitX=1;exitY=0;exitDx=0;exitDy=0;" edge="1" parent="1" source="i2pNjT0lnwEaQv07GCV7-8" target="i2pNjT0lnwEaQv07GCV7-21">
          <mxGeometry relative="1" as="geometry">
            <mxPoint x="169" y="393" as="sourcePoint" />
            <mxPoint x="270" y="400" as="targetPoint" />
          </mxGeometry>
        </mxCell>
        <mxCell id="i2pNjT0lnwEaQv07GCV7-33" value="1" style="resizable=0;html=1;whiteSpace=wrap;align=right;verticalAlign=bottom;" connectable="0" vertex="1" parent="i2pNjT0lnwEaQv07GCV7-32">
          <mxGeometry x="1" relative="1" as="geometry" />
        </mxCell>
        <mxCell id="i2pNjT0lnwEaQv07GCV7-34" value="placa" style="ellipse;whiteSpace=wrap;html=1;align=center;" vertex="1" parent="1">
          <mxGeometry x="490" y="160" width="100" height="40" as="geometry" />
        </mxCell>
        <mxCell id="i2pNjT0lnwEaQv07GCV7-35" value="modelo" style="ellipse;whiteSpace=wrap;html=1;align=center;" vertex="1" parent="1">
          <mxGeometry x="570" y="120" width="100" height="40" as="geometry" />
        </mxCell>
        <mxCell id="i2pNjT0lnwEaQv07GCV7-36" value="cilindraje" style="ellipse;whiteSpace=wrap;html=1;align=center;" vertex="1" parent="1">
          <mxGeometry x="670" y="140" width="100" height="40" as="geometry" />
        </mxCell>
        <mxCell id="i2pNjT0lnwEaQv07GCV7-37" value="capacidad" style="ellipse;whiteSpace=wrap;html=1;align=center;" vertex="1" parent="1">
          <mxGeometry x="710" y="190" width="100" height="40" as="geometry" />
        </mxCell>
        <mxCell id="i2pNjT0lnwEaQv07GCV7-38" value="num_ejes" style="ellipse;whiteSpace=wrap;html=1;align=center;" vertex="1" parent="1">
          <mxGeometry x="727" y="250" width="100" height="40" as="geometry" />
        </mxCell>
        <mxCell id="i2pNjT0lnwEaQv07GCV7-39" value="" style="endArrow=none;html=1;rounded=0;exitX=0.404;exitY=0.921;exitDx=0;exitDy=0;exitPerimeter=0;entryX=0.25;entryY=0;entryDx=0;entryDy=0;" edge="1" parent="1" source="i2pNjT0lnwEaQv07GCV7-34" target="i2pNjT0lnwEaQv07GCV7-13">
          <mxGeometry relative="1" as="geometry">
            <mxPoint x="530" y="240" as="sourcePoint" />
            <mxPoint x="690" y="240" as="targetPoint" />
          </mxGeometry>
        </mxCell>
        <mxCell id="i2pNjT0lnwEaQv07GCV7-40" value="1" style="resizable=0;html=1;whiteSpace=wrap;align=right;verticalAlign=bottom;" connectable="0" vertex="1" parent="i2pNjT0lnwEaQv07GCV7-39">
          <mxGeometry x="1" relative="1" as="geometry" />
        </mxCell>
        <mxCell id="i2pNjT0lnwEaQv07GCV7-41" value="" style="endArrow=none;html=1;rounded=0;" edge="1" parent="1" source="i2pNjT0lnwEaQv07GCV7-36">
          <mxGeometry relative="1" as="geometry">
            <mxPoint x="540" y="207" as="sourcePoint" />
            <mxPoint x="630" y="320" as="targetPoint" />
          </mxGeometry>
        </mxCell>
        <mxCell id="i2pNjT0lnwEaQv07GCV7-42" value="1" style="resizable=0;html=1;whiteSpace=wrap;align=right;verticalAlign=bottom;" connectable="0" vertex="1" parent="i2pNjT0lnwEaQv07GCV7-41">
          <mxGeometry x="1" relative="1" as="geometry" />
        </mxCell>
        <mxCell id="i2pNjT0lnwEaQv07GCV7-43" value="" style="endArrow=none;html=1;rounded=0;entryX=0.933;entryY=0.064;entryDx=0;entryDy=0;entryPerimeter=0;" edge="1" parent="1" source="i2pNjT0lnwEaQv07GCV7-37" target="i2pNjT0lnwEaQv07GCV7-13">
          <mxGeometry relative="1" as="geometry">
            <mxPoint x="550" y="217" as="sourcePoint" />
            <mxPoint x="605" y="340" as="targetPoint" />
          </mxGeometry>
        </mxCell>
        <mxCell id="i2pNjT0lnwEaQv07GCV7-44" value="1" style="resizable=0;html=1;whiteSpace=wrap;align=right;verticalAlign=bottom;" connectable="0" vertex="1" parent="i2pNjT0lnwEaQv07GCV7-43">
          <mxGeometry x="1" relative="1" as="geometry" />
        </mxCell>
        <mxCell id="i2pNjT0lnwEaQv07GCV7-45" value="" style="endArrow=none;html=1;rounded=0;exitX=0.28;exitY=0.929;exitDx=0;exitDy=0;exitPerimeter=0;entryX=1;entryY=0.75;entryDx=0;entryDy=0;" edge="1" parent="1" source="i2pNjT0lnwEaQv07GCV7-38" target="i2pNjT0lnwEaQv07GCV7-13">
          <mxGeometry relative="1" as="geometry">
            <mxPoint x="560" y="227" as="sourcePoint" />
            <mxPoint x="615" y="350" as="targetPoint" />
          </mxGeometry>
        </mxCell>
        <mxCell id="i2pNjT0lnwEaQv07GCV7-46" value="1" style="resizable=0;html=1;whiteSpace=wrap;align=right;verticalAlign=bottom;" connectable="0" vertex="1" parent="i2pNjT0lnwEaQv07GCV7-45">
          <mxGeometry x="1" relative="1" as="geometry" />
        </mxCell>
        <mxCell id="i2pNjT0lnwEaQv07GCV7-49" value="" style="endArrow=none;html=1;rounded=0;exitX=0.387;exitY=1.079;exitDx=0;exitDy=0;exitPerimeter=0;" edge="1" parent="1" source="i2pNjT0lnwEaQv07GCV7-35" target="i2pNjT0lnwEaQv07GCV7-13">
          <mxGeometry relative="1" as="geometry">
            <mxPoint x="570" y="237" as="sourcePoint" />
            <mxPoint x="625" y="360" as="targetPoint" />
          </mxGeometry>
        </mxCell>
        <mxCell id="i2pNjT0lnwEaQv07GCV7-50" value="1" style="resizable=0;html=1;whiteSpace=wrap;align=right;verticalAlign=bottom;" connectable="0" vertex="1" parent="i2pNjT0lnwEaQv07GCV7-49">
          <mxGeometry x="1" relative="1" as="geometry" />
        </mxCell>
        <mxCell id="i2pNjT0lnwEaQv07GCV7-51" value="id_paquete" style="ellipse;whiteSpace=wrap;html=1;align=center;" vertex="1" parent="1">
          <mxGeometry x="80" y="380" width="100" height="40" as="geometry" />
        </mxCell>
        <mxCell id="i2pNjT0lnwEaQv07GCV7-52" value="descripcion" style="ellipse;whiteSpace=wrap;html=1;align=center;" vertex="1" parent="1">
          <mxGeometry x="20" y="430" width="100" height="40" as="geometry" />
        </mxCell>
        <mxCell id="i2pNjT0lnwEaQv07GCV7-53" value="peso" style="ellipse;whiteSpace=wrap;html=1;align=center;" vertex="1" parent="1">
          <mxGeometry x="30" y="480" width="100" height="40" as="geometry" />
        </mxCell>
        <mxCell id="i2pNjT0lnwEaQv07GCV7-54" value="dimensiones" style="ellipse;whiteSpace=wrap;html=1;align=center;" vertex="1" parent="1">
          <mxGeometry x="30" y="540" width="100" height="40" as="geometry" />
        </mxCell>
        <mxCell id="i2pNjT0lnwEaQv07GCV7-55" value="remitente" style="ellipse;whiteSpace=wrap;html=1;align=center;" vertex="1" parent="1">
          <mxGeometry x="120" y="570" width="100" height="40" as="geometry" />
        </mxCell>
        <mxCell id="i2pNjT0lnwEaQv07GCV7-56" value="destinatari&lt;span style=&quot;color: rgba(0, 0, 0, 0); font-family: monospace; font-size: 0px; text-align: start; text-wrap-mode: nowrap;&quot;&gt;%3CmxGraphModel%3E%3Croot%3E%3CmxCell%20id%3D%220%22%2F%3E%3CmxCell%20id%3D%221%22%20parent%3D%220%22%2F%3E%3CmxCell%20id%3D%222%22%20value%3D%22Attribute%22%20style%3D%22ellipse%3BwhiteSpace%3Dwrap%3Bhtml%3D1%3Balign%3Dcenter%3B%22%20vertex%3D%221%22%20parent%3D%221%22%3E%3CmxGeometry%20x%3D%2230%22%20y%3D%22400%22%20width%3D%22100%22%20height%3D%2240%22%20as%3D%22geometry%22%2F%3E%3C%2FmxCell%3E%3C%2Froot%3E%3C%2FmxGraphModel%3E&lt;/span&gt;" style="ellipse;whiteSpace=wrap;html=1;align=center;" vertex="1" parent="1">
          <mxGeometry x="230" y="580" width="100" height="40" as="geometry" />
        </mxCell>
        <mxCell id="i2pNjT0lnwEaQv07GCV7-57" value="Attribute" style="ellipse;whiteSpace=wrap;html=1;align=center;" vertex="1" parent="1">
          <mxGeometry x="570" y="390" width="100" height="40" as="geometry" />
        </mxCell>
        <mxCell id="i2pNjT0lnwEaQv07GCV7-58" value="ciudad_origen&lt;span style=&quot;color: rgba(0, 0, 0, 0); font-family: monospace; font-size: 0px; text-align: start; text-wrap-mode: nowrap;&quot;&gt;%3CmxGraphModel%3E%3Croot%3E%3CmxCell%20id%3D%220%22%2F%3E%3CmxCell%20id%3D%221%22%20parent%3D%220%22%2F%3E%3CmxCell%20id%3D%222%22%20value%3D%22Attribute%22%20style%3D%22ellipse%3BwhiteSpace%3Dwrap%3Bhtml%3D1%3Balign%3Dcenter%3B%22%20vertex%3D%221%22%20parent%3D%221%22%3E%3CmxGeometry%20x%3D%2230%22%20y%3D%22400%22%20width%3D%22100%22%20height%3D%2240%22%20as%3D%22geometry%22%2F%3E%3C%2FmxCell%3E%3C%2Froot%3E%3C%2FmxGraphModel%3E&lt;/span&gt;" style="ellipse;whiteSpace=wrap;html=1;align=center;" vertex="1" parent="1">
          <mxGeometry x="330" y="560" width="100" height="40" as="geometry" />
        </mxCell>
        <mxCell id="i2pNjT0lnwEaQv07GCV7-59" value="ciydad_desti" style="ellipse;whiteSpace=wrap;html=1;align=center;" vertex="1" parent="1">
          <mxGeometry x="364" y="510" width="100" height="40" as="geometry" />
        </mxCell>
        <mxCell id="i2pNjT0lnwEaQv07GCV7-60" value="" style="endArrow=none;html=1;rounded=0;" edge="1" parent="1">
          <mxGeometry relative="1" as="geometry">
            <mxPoint x="120" y="450" as="sourcePoint" />
            <mxPoint x="220" y="450" as="targetPoint" />
          </mxGeometry>
        </mxCell>
        <mxCell id="i2pNjT0lnwEaQv07GCV7-61" value="1" style="resizable=0;html=1;whiteSpace=wrap;align=right;verticalAlign=bottom;" connectable="0" vertex="1" parent="i2pNjT0lnwEaQv07GCV7-60">
          <mxGeometry x="1" relative="1" as="geometry" />
        </mxCell>
        <mxCell id="i2pNjT0lnwEaQv07GCV7-62" value="" style="endArrow=none;html=1;rounded=0;exitX=1;exitY=0;exitDx=0;exitDy=0;entryX=0;entryY=0.5;entryDx=0;entryDy=0;" edge="1" parent="1" source="i2pNjT0lnwEaQv07GCV7-53" target="i2pNjT0lnwEaQv07GCV7-11">
          <mxGeometry relative="1" as="geometry">
            <mxPoint x="130" y="460" as="sourcePoint" />
            <mxPoint x="290" y="460" as="targetPoint" />
          </mxGeometry>
        </mxCell>
        <mxCell id="i2pNjT0lnwEaQv07GCV7-63" value="1" style="resizable=0;html=1;whiteSpace=wrap;align=right;verticalAlign=bottom;" connectable="0" vertex="1" parent="i2pNjT0lnwEaQv07GCV7-62">
          <mxGeometry x="1" relative="1" as="geometry" />
        </mxCell>
        <mxCell id="i2pNjT0lnwEaQv07GCV7-64" value="" style="endArrow=none;html=1;rounded=0;entryX=0;entryY=0.75;entryDx=0;entryDy=0;" edge="1" parent="1" source="i2pNjT0lnwEaQv07GCV7-54" target="i2pNjT0lnwEaQv07GCV7-11">
          <mxGeometry relative="1" as="geometry">
            <mxPoint x="140" y="470" as="sourcePoint" />
            <mxPoint x="300" y="470" as="targetPoint" />
          </mxGeometry>
        </mxCell>
        <mxCell id="i2pNjT0lnwEaQv07GCV7-65" value="1" style="resizable=0;html=1;whiteSpace=wrap;align=right;verticalAlign=bottom;" connectable="0" vertex="1" parent="i2pNjT0lnwEaQv07GCV7-64">
          <mxGeometry x="1" relative="1" as="geometry" />
        </mxCell>
        <mxCell id="i2pNjT0lnwEaQv07GCV7-66" value="" style="endArrow=none;html=1;rounded=0;exitX=0.5;exitY=0;exitDx=0;exitDy=0;entryX=0.25;entryY=1;entryDx=0;entryDy=0;" edge="1" parent="1" source="i2pNjT0lnwEaQv07GCV7-55" target="i2pNjT0lnwEaQv07GCV7-11">
          <mxGeometry relative="1" as="geometry">
            <mxPoint x="150" y="480" as="sourcePoint" />
            <mxPoint x="310" y="480" as="targetPoint" />
          </mxGeometry>
        </mxCell>
        <mxCell id="i2pNjT0lnwEaQv07GCV7-67" value="1" style="resizable=0;html=1;whiteSpace=wrap;align=right;verticalAlign=bottom;" connectable="0" vertex="1" parent="i2pNjT0lnwEaQv07GCV7-66">
          <mxGeometry x="1" relative="1" as="geometry" />
        </mxCell>
        <mxCell id="i2pNjT0lnwEaQv07GCV7-68" value="" style="endArrow=none;html=1;rounded=0;exitX=0.3;exitY=0;exitDx=0;exitDy=0;exitPerimeter=0;entryX=0.5;entryY=1;entryDx=0;entryDy=0;" edge="1" parent="1" source="i2pNjT0lnwEaQv07GCV7-56" target="i2pNjT0lnwEaQv07GCV7-11">
          <mxGeometry relative="1" as="geometry">
            <mxPoint x="160" y="490" as="sourcePoint" />
            <mxPoint x="320" y="490" as="targetPoint" />
          </mxGeometry>
        </mxCell>
        <mxCell id="i2pNjT0lnwEaQv07GCV7-69" value="1" style="resizable=0;html=1;whiteSpace=wrap;align=right;verticalAlign=bottom;" connectable="0" vertex="1" parent="i2pNjT0lnwEaQv07GCV7-68">
          <mxGeometry x="1" relative="1" as="geometry" />
        </mxCell>
        <mxCell id="i2pNjT0lnwEaQv07GCV7-70" value="" style="endArrow=none;html=1;rounded=0;exitX=0;exitY=0;exitDx=0;exitDy=0;" edge="1" parent="1" source="i2pNjT0lnwEaQv07GCV7-58">
          <mxGeometry relative="1" as="geometry">
            <mxPoint x="170" y="500" as="sourcePoint" />
            <mxPoint x="310" y="480" as="targetPoint" />
          </mxGeometry>
        </mxCell>
        <mxCell id="i2pNjT0lnwEaQv07GCV7-71" value="1" style="resizable=0;html=1;whiteSpace=wrap;align=right;verticalAlign=bottom;" connectable="0" vertex="1" parent="i2pNjT0lnwEaQv07GCV7-70">
          <mxGeometry x="1" relative="1" as="geometry" />
        </mxCell>
        <mxCell id="i2pNjT0lnwEaQv07GCV7-72" value="" style="endArrow=none;html=1;rounded=0;entryX=0;entryY=0;entryDx=0;entryDy=0;exitX=1;exitY=0.75;exitDx=0;exitDy=0;" edge="1" parent="1" source="i2pNjT0lnwEaQv07GCV7-11" target="i2pNjT0lnwEaQv07GCV7-59">
          <mxGeometry relative="1" as="geometry">
            <mxPoint x="180" y="510" as="sourcePoint" />
            <mxPoint x="340" y="510" as="targetPoint" />
          </mxGeometry>
        </mxCell>
        <mxCell id="i2pNjT0lnwEaQv07GCV7-73" value="1" style="resizable=0;html=1;whiteSpace=wrap;align=right;verticalAlign=bottom;" connectable="0" vertex="1" parent="i2pNjT0lnwEaQv07GCV7-72">
          <mxGeometry x="1" relative="1" as="geometry" />
        </mxCell>
        <mxCell id="i2pNjT0lnwEaQv07GCV7-74" value="" style="endArrow=none;html=1;rounded=0;exitX=1;exitY=1;exitDx=0;exitDy=0;" edge="1" parent="1" source="i2pNjT0lnwEaQv07GCV7-51">
          <mxGeometry relative="1" as="geometry">
            <mxPoint x="190" y="520" as="sourcePoint" />
            <mxPoint x="270" y="440" as="targetPoint" />
          </mxGeometry>
        </mxCell>
        <mxCell id="i2pNjT0lnwEaQv07GCV7-75" value="1" style="resizable=0;html=1;whiteSpace=wrap;align=right;verticalAlign=bottom;" connectable="0" vertex="1" parent="i2pNjT0lnwEaQv07GCV7-74">
          <mxGeometry x="1" relative="1" as="geometry" />
        </mxCell>
        <mxCell id="i2pNjT0lnwEaQv07GCV7-77" value="Attribute" style="ellipse;whiteSpace=wrap;html=1;align=center;" vertex="1" parent="1">
          <mxGeometry x="580" y="400" width="100" height="40" as="geometry" />
        </mxCell>
        <mxCell id="i2pNjT0lnwEaQv07GCV7-78" value="Attribute" style="ellipse;whiteSpace=wrap;html=1;align=center;" vertex="1" parent="1">
          <mxGeometry x="590" y="410" width="100" height="40" as="geometry" />
        </mxCell>
        <mxCell id="i2pNjT0lnwEaQv07GCV7-79" value="Attribute" style="ellipse;whiteSpace=wrap;html=1;align=center;" vertex="1" parent="1">
          <mxGeometry x="600" y="420" width="100" height="40" as="geometry" />
        </mxCell>
        <mxCell id="i2pNjT0lnwEaQv07GCV7-80" value="ciudad _destinio" style="ellipse;whiteSpace=wrap;html=1;align=center;" vertex="1" parent="1">
          <mxGeometry x="720" y="560" width="100" height="40" as="geometry" />
        </mxCell>
        <mxCell id="i2pNjT0lnwEaQv07GCV7-81" value="ciudad_origen" style="ellipse;whiteSpace=wrap;html=1;align=center;" vertex="1" parent="1">
          <mxGeometry x="610" y="600" width="100" height="40" as="geometry" />
        </mxCell>
      </root>
    </mxGraphModel>
  </diagram>
</mxfile>
